<svg width="401" height="401" viewBox="0 0 401 401" fill="none" xmlns="http://www.w3.org/2000/svg">
<path fill-rule="evenodd" clip-rule="evenodd" d="M279.148 121.852C285.672 128.377 285.672 138.956 279.148 145.481L45.2313 379.398C38.7062 385.922 28.1271 385.922 21.602 379.398C15.0771 372.873 15.0771 362.294 21.602 355.769L255.519 121.852C262.043 115.327 272.623 115.327 279.148 121.852Z" fill="#ED4655"/>
<path fill-rule="evenodd" clip-rule="evenodd" d="M184.508 50.8418C206.453 28.8974 236.216 16.5691 267.25 16.5691C298.284 16.5691 328.046 28.8974 349.991 50.8418C371.936 72.7862 384.263 102.549 384.263 133.583C384.263 164.611 371.941 194.368 350.004 216.311L349.991 216.324L237.395 329.256C234.259 332.399 230.002 334.167 225.562 334.167H83.5417C74.314 334.167 66.8333 326.686 66.8333 317.458V175.438C66.8333 171.006 68.5937 166.757 71.727 163.623L184.508 50.8418ZM267.25 49.9858C245.078 49.9858 223.815 58.7933 208.137 74.4709L100.25 182.358V300.75H218.627L326.344 192.712L326.362 192.696C342.04 177.018 350.847 155.755 350.847 133.583C350.847 111.412 342.04 90.1485 326.362 74.4709C310.685 58.7933 289.422 49.9858 267.25 49.9858Z" fill="#ED4655"/>
<path fill-rule="evenodd" clip-rule="evenodd" d="M133.667 250.625C133.667 241.397 141.147 233.917 150.375 233.917H284.042C293.27 233.917 300.75 241.397 300.75 250.625C300.75 259.853 293.27 267.333 284.042 267.333H150.375C141.147 267.333 133.667 259.853 133.667 250.625Z" fill="#ED4655"/>
</svg>
